<svg width="230" height="96" viewBox="0 0 230 96" fill="none" xmlns="http://www.w3.org/2000/svg">
<g id="Frame">
<g id="Group">
<g id="Group_2">
<path id="Vector" fill-rule="evenodd" clip-rule="evenodd" d="M109.925 62.8371H117.909V32.4141H109.925V62.8371Z" fill="#6D6D6D"/>
<path id="Vector_2" fill-rule="evenodd" clip-rule="evenodd" d="M137.735 56.4284C142.808 56.4284 146.535 52.2762 146.535 47.6151C146.535 42.9536 142.787 38.8408 137.735 38.8408C132.661 38.8408 128.913 42.9536 128.913 47.6151C128.913 52.2762 132.661 56.4284 137.735 56.4284ZM137.797 31.4375C147.363 31.4375 155.067 38.4491 155.067 47.5563C155.067 56.7026 147.301 63.851 137.714 63.851C128.126 63.851 120.361 56.8006 120.361 47.6739C120.361 38.5664 128.23 31.4375 137.797 31.4375ZM155.985 53.635L163.31 51.9889C163.836 55.6445 166.649 56.9653 169.603 56.9653C172.538 56.9653 173.61 55.3192 173.61 54.0368C173.61 53.0033 172.983 51.9889 170.838 51.5871L166.366 50.7639C161.023 49.788 157.24 46.6107 157.24 41.7302C157.24 35.912 162.844 31.8162 169.178 31.8162C177.333 31.8162 180.693 36.6393 181.28 40.6778L174.096 42.5916C173.711 40.1034 172.092 38.3045 169.138 38.3045C166.588 38.3045 165.374 39.9122 165.374 41.137C165.374 42.1514 165.88 43.3189 167.782 43.6634L172.436 44.5055C178.527 45.6157 181.866 49.1372 181.866 53.7115C181.866 58.6879 177.333 63.4726 169.563 63.4726C161.428 63.4726 157.057 59.4341 155.985 53.635Z" fill="#6D6D6D"/>
<path id="Vector_3" fill-rule="evenodd" clip-rule="evenodd" d="M56.5921 62.8371H48L62.2076 32.4141H70.8407L56.5921 62.8371Z" fill="#878787"/>
<path id="Vector_4" fill-rule="evenodd" clip-rule="evenodd" d="M97.2828 47.2762L107.955 32.3906H98.1904L92.4347 41.4018L86.8121 32.3906H76.9157L87.7268 47.2762L81.7111 55.6184L70.8732 32.4086H62.2391L76.4887 62.8325H85.7034L92.4347 53.1881L99.0865 62.8325H108.402L97.2828 47.2762Z" fill="#6D6D6D"/>
</g>
</g>
</g>
</svg>
