<svg width="600" height="600" viewBox="0 0 600 600" fill="none" xmlns="http://www.w3.org/2000/svg">
<path d="M417.857 7.5H182.143C164.391 7.5 150 21.8908 150 39.6429V561.429C150 579.181 164.391 593.571 182.143 593.571H417.857C435.609 593.571 450 579.181 450 561.429V39.6429C450 21.8908 435.609 7.5 417.857 7.5Z" fill="white"/>
<mask id="mask0_1_1688" style="mask-type:alpha" maskUnits="userSpaceOnUse" x="161" y="19" width="278" height="563">
<path d="M161.786 42.8572C161.786 29.839 172.339 19.2858 185.357 19.2858H414.643C427.661 19.2858 438.214 29.839 438.214 42.8572V558.214C438.214 571.232 427.661 581.786 414.643 581.786H185.357C172.339 581.786 161.786 571.232 161.786 558.214V42.8572Z" fill="#EDE6DD"/>
</mask>
<g mask="url(#mask0_1_1688)">
<path d="M161.786 7.5H438.214V558.214C438.214 571.232 427.661 581.786 414.643 581.786H185.357C172.339 581.786 161.786 571.232 161.786 558.214V7.5Z" fill="#F4EFE9"/>
<path d="M226.071 20.3571C226.071 13.2564 231.828 7.5 238.929 7.5H360C367.1 7.5 372.857 13.2564 372.857 20.3571V28.9286C372.857 36.0294 367.1 41.7857 360 41.7857H238.929C231.828 41.7857 226.071 36.0294 226.071 28.9286V20.3571Z" fill="white"/>
</g>
</svg>
